<svg width="297" height="82" viewBox="0 0 297 82" fill="none" xmlns="http://www.w3.org/2000/svg">
    <path fill-rule="evenodd" clip-rule="evenodd" d="M34.3701 59.996C31.4195 59.9415 28.6009 59.3362 26 58.2781L35.658 43L51 53.5349C46.5405 57.7111 40.8352 60 34.8116 60C34.6651 60 34.5176 59.9985 34.3701 59.996ZM10.004 34.4036C10.0495 31.848 10.4957 29.3583 11.2992 27L27 37.2108L17.1288 52C12.6217 47.4719 9.88126 41.2364 10.004 34.4036ZM34.7445 10C34.8913 10 35.0382 10.001 35.1861 10.0039C48.5518 10.2403 59.2329 21.2901 58.9961 34.636C58.9382 37.9145 58.2269 41.0844 56.9348 44L17 17.7279C17.2517 17.4582 17.5088 17.1919 17.7746 16.9318C22.3359 12.4616 28.3629 10 34.7445 10ZM35.111 0.00579157C34.9027 0.00193052 34.6949 0 34.4876 0C15.7185 0 0.339213 14.9939 0.00551228 33.7707C-0.179016 44.1545 4.28212 53.5368 11.4739 59.9684L0.605109 76.4078L9.12296 82L19.9869 65.5679C24.2209 67.5273 28.9208 68.6654 33.889 68.7532C34.0973 68.7571 34.3046 68.759 34.5119 68.759C53.2815 68.759 68.6608 53.7651 68.9945 34.9883C69.3321 16.004 54.1615 0.341703 35.111 0.00579157Z" fill="#35CAB9"/>
    <path d="M81.3905 41.984H99.5025V49.984H81.3905V41.984ZM130.191 62.336C129.21 63.0613 127.994 63.616 126.543 64C125.135 64.3413 123.642 64.512 122.063 64.512C117.967 64.512 114.788 63.4667 112.527 61.376C110.308 59.2853 109.199 56.2133 109.199 52.16V38.016H103.887V30.336H109.199V21.952H119.183V30.336H127.759V38.016H119.183V52.032C119.183 53.4827 119.546 54.6133 120.271 55.424C121.039 56.192 122.106 56.576 123.471 56.576C125.05 56.576 126.394 56.1493 127.503 55.296L130.191 62.336ZM135.796 29.568H145.78V64H135.796V29.568ZM140.788 24.768C138.953 24.768 137.46 24.2347 136.308 23.168C135.156 22.1013 134.58 20.7787 134.58 19.2C134.58 17.6213 135.156 16.2987 136.308 15.232C137.46 14.1653 138.953 13.632 140.788 13.632C142.622 13.632 144.116 14.144 145.268 15.168C146.42 16.192 146.996 17.472 146.996 19.008C146.996 20.672 146.42 22.0587 145.268 23.168C144.116 24.2347 142.622 24.768 140.788 24.768ZM171.686 64.512C168.016 64.512 164.71 63.7653 161.766 62.272C158.864 60.736 156.582 58.624 154.918 55.936C153.296 53.248 152.486 50.1973 152.486 46.784C152.486 43.3707 153.296 40.32 154.918 37.632C156.582 34.944 158.864 32.8533 161.766 31.36C164.71 29.824 168.016 29.056 171.686 29.056C175.312 29.056 178.47 29.824 181.158 31.36C183.888 32.8533 185.872 35.008 187.11 37.824L179.366 41.984C177.574 38.8267 174.992 37.248 171.622 37.248C169.019 37.248 166.864 38.1013 165.158 39.808C163.451 41.5147 162.598 43.84 162.598 46.784C162.598 49.728 163.451 52.0533 165.158 53.76C166.864 55.4667 169.019 56.32 171.622 56.32C175.035 56.32 177.616 54.7413 179.366 51.584L187.11 55.808C185.872 58.5387 183.888 60.672 181.158 62.208C178.47 63.744 175.312 64.512 171.686 64.512ZM207.392 50.496L202.592 55.232V64H192.608V16.512H202.592V43.392L217.184 29.568H229.088L214.752 44.16L230.368 64H218.272L207.392 50.496ZM267.086 46.912C267.086 47.04 267.022 47.936 266.894 49.6H240.846C241.315 51.7333 242.425 53.4187 244.174 54.656C245.923 55.8933 248.099 56.512 250.702 56.512C252.494 56.512 254.073 56.256 255.438 55.744C256.846 55.1893 258.147 54.336 259.342 53.184L264.654 58.944C261.411 62.656 256.675 64.512 250.446 64.512C246.563 64.512 243.129 63.7653 240.142 62.272C237.155 60.736 234.851 58.624 233.23 55.936C231.609 53.248 230.798 50.1973 230.798 46.784C230.798 43.4133 231.587 40.384 233.166 37.696C234.787 34.9653 236.985 32.8533 239.758 31.36C242.574 29.824 245.71 29.056 249.166 29.056C252.537 29.056 255.587 29.7813 258.318 31.232C261.049 32.6827 263.182 34.7733 264.718 37.504C266.297 40.192 267.086 43.328 267.086 46.912ZM249.23 36.608C246.969 36.608 245.07 37.248 243.534 38.528C241.998 39.808 241.059 41.5573 240.718 43.776H257.678C257.337 41.6 256.398 39.872 254.862 38.592C253.326 37.2693 251.449 36.608 249.23 36.608ZM295.941 62.336C294.96 63.0613 293.744 63.616 292.293 64C290.885 64.3413 289.392 64.512 287.813 64.512C283.717 64.512 280.538 63.4667 278.277 61.376C276.058 59.2853 274.949 56.2133 274.949 52.16V38.016H269.637V30.336H274.949V21.952H284.933V30.336H293.509V38.016H284.933V52.032C284.933 53.4827 285.296 54.6133 286.021 55.424C286.789 56.192 287.856 56.576 289.221 56.576C290.8 56.576 292.144 56.1493 293.253 55.296L295.941 62.336Z" fill="#35CAB9"/>
</svg>
